<svg width="200" height="200" viewBox="0 0 200 200" xmlns="http://www.w3.org/2000/svg"><rect x="30" y="70" width="140" height="100" rx="5" fill="#222"/><rect x="45" y="90" width="110" height="4" rx="2" fill="#555"/><rect x="45" y="110" width="110" height="4" rx="2" fill="#555"/><rect x="45" y="130" width="50" height="4" rx="2" fill="#555"/><rect x="105" y="130" width="50" height="4" rx="2" fill="#555"/><g transform="rotate(-15 30 70)"><rect x="30" y="50" width="140" height="20" rx="2" fill="#222"/><path d="M50 50h20L55 70H35Zm35 0h20L90 70H70Zm35 0h20l-15 20h-20Zm35 0h15v20h-30Z" fill="#fff"/></g><path fill="#222" d="M30 70h140v15H30z"/><path d="M45 70h20L50 85H30v-5Zm35 0h20L85 85H65Zm35 0h20l-15 15h-20Zm35 0h20v15h-35Z" fill="#fff"/><circle cx="35" cy="72" r="4" fill="#444"/></svg>